<?xml version="1.0" standalone="no"?>
<!DOCTYPE svg PUBLIC "-//W3C//DTD SVG 20010904//EN"
 "http://www.w3.org/TR/2001/REC-SVG-20010904/DTD/svg10.dtd">
<svg version="1.0" xmlns="http://www.w3.org/2000/svg"
 width="142" height="24" viewBox="0 0 800.000000 800.000000"
 preserveAspectRatio="xMidYMid meet">
<metadata>
Created by potrace 1.16, written by Peter Selinger 2001-2019
</metadata>
<g transform="translate(0.000000,800.000000) scale(0.100000,-0.100000)"
fill="#000000" stroke="none">
<path d="M0 4000 l0 -4000 520 0 520 0 0 25 c0 28 12 32 30 10 7 -8 16 -13 20
-10 5 3 11 1 15 -5 4 -6 10 -8 15 -5 5 3 11 1 15 -5 3 -5 20 -10 36 -10 28 0
29 1 15 16 -9 8 -28 14 -43 12 -21 -2 -34 4 -52 25 -21 25 -24 39 -26 140 -14
561 -15 523 11 697 13 91 26 183 29 205 9 61 45 263 57 320 5 28 14 82 18 120
4 39 21 124 37 190 17 66 38 165 47 220 39 239 65 352 95 417 17 36 31 71 31
77 0 5 16 37 35 70 19 32 35 65 36 73 0 7 16 33 34 58 19 25 45 68 59 95 25
51 57 85 79 85 6 0 30 16 51 35 22 19 44 35 48 35 5 0 24 11 41 24 18 13 64
41 102 62 39 21 97 53 130 71 33 18 85 45 115 60 30 15 57 30 60 33 16 19 249
113 265 106 27 -10 72 5 85 30 7 13 16 21 20 19 4 -3 13 2 20 10 7 9 20 15 29
14 9 -1 24 2 35 6 13 6 23 2 35 -13 10 -15 24 -20 39 -17 12 2 22 0 22 -4 0
-13 62 -20 89 -9 19 7 29 4 48 -14 13 -12 23 -29 21 -38 -3 -26 12 -59 33 -65
25 -8 25 -50 -1 -93 -11 -18 -20 -42 -20 -54 0 -11 -14 -50 -30 -85 -33 -69
-38 -103 -15 -103 9 0 12 6 9 15 -4 8 -1 15 5 15 6 0 11 8 11 19 0 10 8 21 19
24 10 2 21 17 25 33 18 74 64 139 84 119 4 -3 0 -10 -7 -14 -9 -6 -10 -11 -2
-15 6 -4 11 -20 11 -37 0 -24 -4 -29 -25 -29 -30 0 -30 0 -5 -45 17 -30 17
-35 4 -35 -8 0 -13 -4 -9 -10 3 -5 6 -30 7 -55 0 -31 5 -45 15 -45 7 0 17 -8
20 -17 16 -41 55 -66 109 -71 30 -2 54 -9 54 -13 0 -5 11 -14 25 -19 14 -5 28
-17 31 -25 4 -8 13 -15 21 -15 13 0 13 -3 2 -16 -10 -13 -10 -17 1 -24 8 -5
14 -25 14 -44 0 -20 4 -36 10 -36 5 0 7 -3 3 -6 -3 -4 9 -26 28 -49 19 -23 35
-47 35 -54 0 -17 101 -117 128 -125 12 -4 22 -3 22 2 0 6 16 8 38 5 31 -4 41
0 61 21 14 14 31 26 38 26 18 0 3 17 -39 44 -16 10 -28 25 -28 33 0 10 -6 13
-16 9 -9 -3 -22 -6 -30 -6 -8 0 -14 -5 -14 -11 0 -5 4 -7 10 -4 6 3 10 -5 10
-19 0 -18 -4 -24 -15 -20 -8 4 -16 10 -16 15 -1 8 -3 17 -8 37 -2 4 -6 -2 -11
-13 -6 -15 -9 -16 -9 -4 -1 9 -12 25 -26 35 -14 10 -25 24 -25 30 0 6 -7 17
-15 24 -21 17 -45 69 -35 75 12 7 -1 97 -21 140 -5 11 -13 31 -19 45 -5 14
-14 32 -19 40 -6 8 -12 28 -16 43 -3 15 -10 25 -15 22 -5 -3 -16 10 -26 30 -9
19 -20 35 -24 35 -4 0 -11 16 -14 35 -4 19 -10 35 -14 35 -5 0 -9 15 -9 33 -1
17 -9 52 -18 77 -23 61 -36 173 -22 182 14 9 27 -10 27 -40 0 -23 45 -118 61
-128 5 -3 9 -13 9 -24 0 -10 6 -20 13 -23 7 -3 26 -24 42 -48 16 -24 40 -54
53 -66 14 -13 21 -27 16 -34 -4 -7 -3 -9 3 -6 6 4 16 -7 23 -24 7 -16 21 -34
31 -39 10 -6 21 -20 25 -32 4 -12 21 -36 38 -54 17 -17 58 -63 91 -102 33 -40
62 -72 65 -72 9 0 80 -69 80 -77 0 -5 19 -28 41 -53 22 -25 49 -59 61 -76 29
-43 54 -58 62 -38 3 9 1 12 -4 9 -6 -3 -10 1 -10 11 0 9 -9 33 -19 53 -10 20
-27 54 -36 76 -18 41 -28 55 -109 138 -26 26 -43 47 -39 47 4 1 -4 11 -18 23
-14 12 -40 42 -57 67 -17 25 -54 67 -82 94 l-51 49 30 13 c41 17 50 56 25 103
-20 39 -49 49 -83 31 -27 -14 -27 -55 -1 -95 29 -44 24 -52 -7 -13 -16 18 -42
47 -59 63 -17 17 -46 50 -65 75 -18 25 -36 47 -40 50 -3 3 -20 33 -36 68 -17
34 -35 68 -41 75 -5 6 -15 48 -21 92 -6 44 -13 91 -17 105 -10 41 -14 76 -8
63 8 -18 22 -16 26 5 2 9 7 -10 11 -43 5 -42 15 -69 32 -89 13 -15 32 -51 41
-80 9 -28 22 -60 28 -71 7 -11 23 -46 35 -77 24 -59 51 -94 51 -65 0 8 -7 20
-15 27 -8 7 -20 31 -26 54 -17 63 -81 208 -101 228 -11 11 -18 33 -18 57 0 21
-3 60 -7 86 -4 32 -3 46 4 42 6 -4 13 -28 16 -55 3 -27 20 -76 38 -108 17 -32
42 -79 55 -104 12 -25 34 -56 48 -69 14 -14 26 -28 26 -33 0 -4 43 -51 95
-104 81 -81 102 -109 137 -182 22 -48 43 -105 45 -127 3 -22 11 -54 19 -72 8
-17 14 -36 14 -42 0 -6 5 -11 10 -11 14 0 104 -90 119 -118 6 -12 16 -22 22
-22 15 0 39 -26 39 -42 1 -13 49 -73 54 -67 2 2 15 29 30 59 33 68 107 177
132 194 36 25 152 66 186 66 23 0 47 11 77 35 24 19 51 35 60 35 20 0 104 83
95 93 -4 4 -2 7 4 7 7 0 12 10 12 23 0 12 7 35 15 51 8 15 15 38 15 50 0 11 9
41 20 65 11 24 20 53 20 65 1 11 7 38 15 59 8 20 21 54 29 74 l14 37 8 -55 8
-54 8 50 c4 28 4 88 -1 135 -12 112 -13 277 -2 284 11 7 49 -51 72 -109 15
-36 21 -41 65 -51 27 -5 84 -27 127 -47 42 -20 81 -37 87 -37 5 0 42 -16 81
-35 40 -19 78 -35 85 -35 6 0 44 -16 83 -35 39 -19 76 -35 83 -35 7 0 46 -16
85 -35 40 -19 77 -35 83 -35 7 0 46 -16 88 -36 42 -19 113 -51 157 -71 44 -20
89 -40 100 -46 11 -6 47 -25 80 -42 195 -99 410 -303 426 -403 4 -20 20 -81
38 -136 17 -54 31 -110 31 -125 0 -14 7 -47 14 -73 26 -84 66 -324 66 -394 0
-38 7 -132 15 -209 22 -200 34 -391 40 -615 5 -221 23 -573 30 -592 2 -7 11
-98 20 -203 8 -104 18 -216 21 -248 l6 -57 664 0 c574 1 664 3 664 15 0 8 -4
15 -10 15 -5 0 -10 5 -10 11 0 5 5 7 10 4 6 -4 10 27 9 87 0 56 -4 85 -8 73
-7 -17 -9 -14 -14 15 -3 21 1 47 9 65 12 23 14 84 13 303 -1 265 -1 274 -20
269 -10 -3 -19 -1 -19 4 0 5 9 9 20 9 19 0 20 7 20 226 0 145 -4 233 -11 246
-8 15 -8 19 0 14 17 -11 15 715 -1 733 -10 11 -10 12 -1 7 10 -6 13 599 13
2948 l0 2956 -4000 0 -4000 0 0 -4000z m3992 2883 c10 -9 18 -11 18 -5 0 6 -6
13 -12 16 -35 16 94 -7 142 -26 58 -22 91 -45 54 -36 -12 3 -31 0 -43 -6 l-22
-12 21 -19 c28 -26 25 -39 -5 -19 -21 14 -24 14 -20 2 5 -11 -1 -15 -19 -15
-14 0 -23 4 -20 9 4 6 -2 8 -14 4 -11 -4 -23 -2 -27 4 -3 5 -11 10 -17 10 -6
0 -6 -6 2 -15 32 -39 -24 -28 -64 12 -36 36 -36 65 1 32 l26 -24 -16 25 c-17
24 -24 80 -10 80 3 0 15 -7 25 -17z m-54 -516 c6 3 12 -1 12 -8 0 -8 6 -6 19
5 12 11 21 14 26 7 9 -15 42 -14 48 2 3 8 12 5 30 -12 19 -17 37 -23 69 -23
23 1 48 -4 54 -9 8 -7 14 -6 19 1 4 7 11 8 18 2 12 -9 65 -21 117 -25 14 -1
39 -14 55 -29 32 -30 42 -33 64 -19 24 15 71 -15 78 -49 3 -16 8 -28 12 -26 4
3 8 -7 9 -22 1 -14 5 -28 10 -31 4 -3 9 -15 10 -26 6 -31 12 -31 12 -1 0 33
19 31 37 -5 7 -13 13 -18 13 -11 0 7 4 11 9 8 12 -8 20 -56 9 -56 -5 0 -6 -4
-3 -10 3 -5 2 -18 -4 -27 -8 -16 -11 -15 -20 10 -6 16 -11 33 -11 38 0 5 -4 9
-9 9 -5 0 -7 -10 -4 -21 5 -19 4 -20 -16 -9 -13 6 -25 10 -27 7 -3 -2 -6 -32
-7 -66 -1 -44 -5 -60 -14 -56 -7 2 -13 -2 -13 -9 0 -8 7 -16 15 -20 8 -3 15
-10 15 -16 0 -6 -4 -8 -10 -5 -5 3 -8 0 -5 -7 2 -7 16 -52 29 -101 28 -96 37
-117 60 -137 24 -19 19 -49 -8 -60 -13 -5 -27 -14 -31 -19 -8 -14 -45 -14 -45
-1 0 6 -5 10 -11 10 -8 0 -9 -21 -5 -67 3 -38 3 -61 0 -53 -3 8 -8 22 -11 30
-3 8 -7 22 -8 30 -3 15 -7 32 -20 83 -8 31 -41 55 -47 35 -3 -9 -11 -8 -29 3
-19 13 -27 14 -36 4 -6 -7 -9 -16 -6 -19 4 -3 1 -6 -5 -6 -7 0 -12 4 -12 9 0
14 -71 21 -93 10 -11 -6 -17 -7 -14 -2 3 5 -9 7 -28 5 -20 -2 -43 3 -59 13
-18 12 -26 14 -26 5 0 -10 -3 -10 -15 0 -13 11 -18 10 -29 -5 -13 -18 -42 -12
-31 6 13 21 -27 19 -67 -3 -77 -42 -106 -88 -107 -173 0 -37 5 -68 15 -83 8
-12 13 -30 12 -40 -2 -10 2 -16 11 -14 8 2 28 -11 46 -28 24 -24 42 -31 80
-34 41 -3 46 -2 32 9 -25 18 -21 25 16 25 30 1 31 1 13 15 -20 15 -20 15 -1
29 18 13 22 11 42 -17 30 -40 39 -45 76 -41 44 6 77 40 77 82 0 29 2 33 15 22
8 -7 15 -19 15 -26 0 -8 6 -14 13 -14 6 0 4 -5 -6 -11 -26 -15 -11 -29 23 -19
16 5 39 6 50 3 31 -8 69 16 90 57 l19 35 1 -32 c0 -34 -31 -117 -49 -127 -6
-4 -16 -17 -21 -29 -8 -16 -4 -14 15 8 15 17 35 47 44 67 10 21 21 35 24 31 4
-3 7 1 7 9 0 8 9 27 20 41 11 14 17 32 14 41 -4 10 -1 16 7 16 11 0 11 2 1 8
-7 5 -16 23 -21 40 -9 30 -8 32 15 32 18 0 25 -7 30 -27 10 -47 16 -59 21 -46
3 7 -1 29 -7 49 -7 19 -10 38 -7 40 14 14 43 -19 55 -63 37 -139 38 -143 22
-143 -5 0 -11 8 -11 18 -1 16 -2 16 -6 0 -2 -10 9 -38 26 -63 17 -26 31 -57
31 -70 0 -13 -27 -77 -60 -142 -33 -64 -60 -123 -60 -129 0 -25 -19 -24 -50 2
-17 15 -33 24 -36 21 -3 -3 1 -31 10 -62 19 -63 13 -130 -10 -121 -8 3 -14 -1
-14 -10 0 -8 -4 -12 -10 -9 -5 3 -10 1 -10 -4 0 -6 -4 -11 -10 -11 -6 0 -9 29
-7 73 2 66 0 72 -18 72 -11 0 -23 7 -27 15 -5 12 -7 11 -7 -3 -1 -10 -5 -16
-10 -12 -5 3 -12 1 -15 -4 -4 -5 -21 -5 -43 0 -23 5 -42 4 -47 -1 -5 -5 -14
-6 -20 -1 -6 5 -28 14 -48 20 -21 7 -38 17 -38 22 0 5 -6 9 -14 9 -8 0 -21 7
-30 15 -8 9 -18 14 -21 13 -3 -2 -28 19 -55 46 -28 27 -53 47 -56 44 -11 -11
7 -47 26 -53 27 -8 74 -75 76 -107 l2 -28 -29 21 c-20 14 -34 18 -42 11 -7 -5
-34 -6 -62 -3 -38 5 -51 10 -53 25 -7 34 -29 47 -74 44 -25 -2 -42 -8 -41 -14
2 -11 -18 -9 -94 9 -12 3 -49 7 -82 8 -52 2 -65 -1 -86 -21 -14 -13 -25 -20
-25 -16 0 4 -9 2 -20 -4 -17 -9 -20 -8 -20 9 0 11 5 32 11 48 6 15 16 51 24
78 7 28 16 59 20 70 6 16 3 15 -14 -5 -11 -14 -21 -30 -21 -36 0 -7 -11 -22
-25 -35 -13 -13 -25 -28 -25 -34 0 -5 -15 -26 -33 -45 -17 -19 -32 -41 -32
-50 0 -8 -5 -15 -10 -15 -6 -1 -20 -6 -32 -13 -13 -7 -23 -10 -23 -6 0 3 -7 1
-15 -6 -8 -7 -15 -9 -15 -5 0 4 -6 3 -12 -3 -21 -17 -154 -19 -143 -2 4 6 -6
7 -25 4 -16 -4 -30 -2 -30 3 0 15 -61 73 -71 67 -5 -3 -9 -14 -9 -24 0 -11
-10 -24 -21 -31 -17 -8 -20 -8 -14 1 4 7 3 15 -3 19 -13 8 9 74 34 102 9 10
35 24 57 30 l40 10 -47 42 c-25 23 -46 46 -46 51 0 4 -9 19 -20 33 -48 62 -79
258 -49 316 19 36 80 88 132 112 41 19 45 23 26 28 -21 6 -21 7 -5 29 9 13 19
31 23 41 3 9 9 17 13 17 5 0 12 10 16 22 4 12 32 49 63 82 31 33 50 56 44 52
-9 -5 -11 -2 -7 8 3 8 12 12 19 10 7 -3 25 10 39 29 17 22 39 37 59 41 29 6
87 46 87 61 0 11 -28 4 -40 -10 -7 -9 -15 -13 -18 -10 -11 11 81 86 100 82 10
-3 16 -2 13 3 -7 11 29 40 61 49 16 4 28 14 27 22 -2 17 94 89 119 89 10 0 15
5 12 14 -5 13 38 48 65 52 7 2 18 7 24 13 6 6 19 11 29 11 11 0 18 7 18 20 0
16 4 19 18 12 9 -5 23 -7 30 -5z m779 -311 c-1 -19 -5 -32 -9 -29 -5 2 -8 -1
-8 -7 0 -7 12 -10 28 -8 23 3 27 0 24 -19 -2 -13 1 -23 6 -23 6 0 6 -18 1 -47
-5 -25 -7 -48 -4 -51 6 -6 13 14 17 48 2 14 9 24 15 23 7 -2 17 16 23 40 6 23
15 51 19 62 8 19 10 18 20 -8 13 -34 15 -117 2 -117 -5 0 -12 10 -16 23 -7 21
-7 21 -12 2 -3 -11 -11 -28 -18 -38 -7 -10 -10 -28 -8 -40 5 -18 3 -20 -7 -10
-10 9 -18 9 -33 1 -26 -13 -39 6 -26 40 12 32 4 40 -13 13 -16 -26 -27 -27
-27 -3 -1 9 -3 46 -5 82 -4 50 -1 69 11 82 21 24 22 23 20 -16z m313 -1032 c0
-48 -77 -344 -94 -363 -9 -10 -16 -23 -16 -29 0 -7 -4 -12 -9 -12 -6 0 -18
-13 -27 -30 -20 -33 -69 -60 -106 -59 -12 0 -17 3 -10 6 6 2 12 13 12 23 0 9
9 38 20 63 16 35 27 47 50 52 16 4 41 20 55 37 28 33 26 50 -2 27 -60 -48 -93
-51 -93 -8 0 28 2 31 24 25 22 -5 26 -1 39 37 9 23 18 69 22 102 3 33 10 64
14 68 16 16 31 -3 31 -39 0 -19 3 -34 8 -34 7 0 43 105 42 127 0 6 5 24 11 40
8 22 12 24 19 13 6 -8 10 -29 10 -46z m-910 -240 c0 -13 45 -93 59 -104 12
-10 41 -59 41 -71 0 -8 -27 -9 -99 -4 -90 6 -99 5 -103 -11 -1 -9 -12 -18 -23
-19 -11 -2 -28 -6 -37 -10 -13 -5 -18 -3 -18 8 0 17 57 29 64 13 2 -6 5 -3 5
7 1 13 -7 17 -34 17 -48 0 -44 15 12 43 39 19 50 30 60 63 6 21 12 57 12 80 1
22 4 44 8 48 10 9 53 -40 53 -60z m117 -375 c7 -13 10 -38 7 -56 -4 -19 -2
-33 3 -33 6 0 16 -18 23 -40 7 -21 16 -38 19 -37 3 1 16 -5 29 -13 21 -14 30
-40 14 -40 -5 0 -9 -13 -10 -29 0 -17 -6 -39 -12 -51 -6 -11 -8 -25 -5 -30 3
-5 -10 -26 -30 -45 -19 -20 -35 -40 -35 -45 0 -6 -6 -10 -14 -10 -8 0 -16 -6
-19 -14 -3 -8 -14 -15 -24 -15 -42 -1 -99 -14 -106 -25 -6 -7 -7 -5 -4 6 8 23
-20 31 -32 10 -6 -9 -11 -13 -11 -8 0 5 -7 3 -15 -4 -16 -13 -35 -6 -35 14 0
14 -51 29 -60 18 -3 -4 -33 -7 -67 -7 -57 0 -62 -2 -57 -18 5 -17 3 -17 -16
-7 -19 10 -22 18 -17 57 3 29 15 57 34 81 l30 37 121 5 c107 4 124 8 149 28
15 12 40 30 54 39 36 23 74 81 74 115 1 28 -9 36 -20 18 -3 -5 -13 -10 -21
-10 -8 0 -12 5 -9 10 13 21 -6 30 -30 14 -13 -9 -30 -14 -37 -11 -7 2 -33 -5
-57 -15 -24 -10 -71 -21 -105 -24 -34 -2 -70 -6 -81 -7 -29 -3 -31 35 -3 66
18 19 43 29 106 41 45 9 98 16 117 16 40 0 80 14 102 35 19 20 35 15 50 -16z
m-1173 -924 c-3 -8 2 -22 11 -31 14 -15 20 -15 37 -5 22 13 34 9 23 -8 -3 -6
-19 -11 -34 -11 -15 0 -31 -4 -36 -9 -6 -4 -39 -14 -75 -21 -36 -8 -101 -26
-145 -42 -91 -32 -107 -34 -99 -13 4 8 1 15 -6 15 -10 0 -9 4 1 16 8 10 23 14
41 12 16 -3 29 1 32 9 3 7 19 13 36 13 23 0 33 6 40 24 7 19 16 24 37 24 16
-1 39 5 52 11 12 7 35 15 49 17 15 3 29 7 31 10 8 8 10 4 5 -11z"/>
<path d="M3450 5631 c0 -5 14 -12 31 -16 37 -8 129 -97 129 -124 0 -27 -17
-36 -25 -12 -11 36 -47 72 -98 98 -46 24 -66 28 -170 31 -79 3 -123 0 -130 -7
-6 -6 -18 -11 -26 -11 -33 0 -118 -54 -150 -96 -33 -43 -33 -46 -29 -122 6
-97 49 -192 114 -252 42 -39 46 -40 92 -33 26 3 57 6 70 6 12 -1 22 4 22 9 0
6 7 7 16 4 9 -4 23 -1 31 5 7 7 16 9 19 6 8 -8 44 25 44 40 0 7 6 13 14 13 7
0 20 9 28 21 8 13 26 22 48 24 18 2 39 11 46 20 8 11 21 16 33 12 17 -4 22 2
31 31 5 21 10 48 11 62 0 14 4 34 9 45 5 13 6 0 4 -34 -5 -83 -14 -113 -43
-151 -15 -19 -30 -42 -33 -51 -4 -9 -34 -37 -68 -62 -34 -26 -55 -47 -48 -47
8 0 26 9 39 21 13 11 35 27 49 36 14 8 33 32 42 55 10 22 26 42 36 45 21 5 78
112 89 165 6 32 52 68 88 68 28 0 66 -36 110 -105 32 -51 85 -113 85 -100 0 3
-14 24 -31 49 -28 38 -33 56 -37 123 -5 82 -11 93 -52 93 -22 -1 -23 -2 -8
-13 15 -12 22 -35 19 -67 -1 -8 -8 0 -17 19 -21 48 -50 70 -105 77 -40 5 -48
10 -54 32 -5 21 -8 23 -16 11 -7 -12 -9 -11 -9 4 0 9 -7 17 -15 17 -9 0 -18 7
-21 15 -4 8 -12 15 -19 15 -7 0 -18 7 -25 15 -7 8 -16 12 -21 9 -5 -3 -9 0 -9
5 0 6 -20 11 -45 11 -25 0 -45 -4 -45 -9z"/>
<path d="M4390 5283 c0 -24 -14 -31 -25 -13 -12 19 -21 10 -20 -22 0 -26 -4
-32 -20 -32 -11 0 -31 7 -45 16 -27 18 -131 30 -151 18 -6 -5 -9 -15 -6 -23 3
-9 1 -18 -6 -21 -7 -2 0 -5 16 -5 15 -1 27 -6 27 -12 0 -5 5 -7 10 -4 6 3 10
-4 10 -17 1 -20 2 -21 13 -8 17 21 36 23 43 5 4 -8 10 -15 16 -15 5 0 6 5 3
10 -3 6 1 10 9 10 9 0 16 -6 16 -12 0 -8 5 -6 11 4 5 10 25 20 45 24 19 3 33
9 30 12 -3 2 6 18 19 34 28 33 29 37 15 58 -8 12 -10 11 -10 -7z"/>
<path d="M5940 1593 c-22 -65 -71 -167 -92 -190 -12 -12 -26 -33 -32 -45 -6
-13 -23 -28 -36 -35 -22 -10 -27 -23 -38 -94 -7 -45 -24 -111 -38 -147 -13
-35 -24 -72 -24 -80 0 -34 -64 -110 -112 -135 -45 -23 -46 -25 -29 -41 10 -9
21 -13 26 -9 4 5 5 0 2 -10 -4 -9 -1 -30 5 -45 6 -15 11 -62 10 -104 -1 -43 3
-80 9 -83 5 -4 7 -11 4 -16 -4 -5 -3 -9 2 -9 4 0 9 -30 11 -66 2 -47 11 -86
32 -133 l29 -66 -11 -110 c-17 -178 -19 -170 22 -173 32 -3 38 1 53 33 9 20
17 42 17 51 0 8 7 28 15 44 10 19 11 30 5 30 -12 0 -5 60 10 95 29 64 39 98
33 108 -3 5 2 16 11 23 10 7 19 30 21 57 3 25 14 62 25 82 11 19 20 49 20 65
0 16 5 32 10 35 6 4 8 11 5 16 -4 5 -2 9 3 9 5 0 12 19 15 43 4 23 9 56 13 72
l7 30 -41 -43 c-22 -23 -44 -42 -49 -42 -4 0 -3 4 3 8 11 7 44 168 44 214 0
15 4 29 9 32 5 3 12 32 16 63 8 64 30 163 47 205 12 32 19 208 7 208 -4 0 -9
-4 -11 -8 -1 -5 -18 -12 -35 -15 -28 -6 -33 -4 -33 13 0 10 5 32 11 47 6 15
15 37 20 48 17 42 31 97 26 101 -3 3 -11 -12 -17 -33z"/>
<path d="M1819 1183 c-5 -192 -13 -217 -61 -208 -10 2 -17 1 -15 -3 22 -47 43
-82 49 -82 4 0 19 -21 32 -47 14 -27 25 -44 26 -39 0 19 40 -38 49 -71 16 -58
0 -76 -42 -48 -27 17 -81 24 -85 10 -2 -5 -8 -15 -13 -21 -9 -11 -7 -26 10
-81 5 -17 6 -35 3 -39 -4 -4 -2 -4 4 -1 12 7 24 -40 25 -93 1 -14 5 -27 9 -30
5 -3 11 -46 14 -95 3 -50 7 -96 8 -103 1 -8 16 -25 33 -39 28 -23 32 -31 28
-62 -3 -20 -10 -39 -17 -43 -6 -4 10 -8 37 -8 26 0 47 -4 47 -9 0 -5 7 -17 16
-25 13 -13 13 -16 1 -16 -8 0 -20 -7 -27 -15 -11 -13 0 -15 93 -15 58 0 108 4
111 9 3 5 8 24 10 42 3 19 9 47 15 63 15 37 2 83 -36 133 -17 21 -36 58 -43
83 -8 25 -22 63 -32 86 -20 47 -61 250 -54 267 2 7 5 1 5 -12 1 -16 5 -21 16
-17 8 3 15 1 15 -4 0 -6 8 -10 18 -10 14 0 14 2 3 9 -8 5 -15 25 -15 44 -1 19
-4 33 -8 30 -5 -2 -8 2 -8 10 0 8 -9 17 -20 20 -11 3 -20 14 -20 25 0 11 -9
55 -20 98 -11 46 -20 113 -20 161 l0 81 -52 61 c-69 80 -88 80 -89 4z"/>
<path d="M3922 1127 c-32 -34 -31 -109 2 -142 23 -23 26 -24 55 -9 44 22 61
52 61 106 0 37 -4 50 -19 58 -33 17 -76 12 -99 -13z"/>
<path d="M5208 803 c-38 -24 -36 -56 7 -144 19 -40 35 -80 35 -89 0 -10 7 -23
16 -31 8 -7 22 -26 31 -42 11 -21 17 -26 23 -17 6 10 12 10 29 -2 18 -13 19
-17 7 -21 -8 -3 -17 -1 -20 6 -2 7 -5 7 -5 2 -1 -6 10 -22 23 -37 14 -14 22
-29 18 -34 -4 -4 -1 -4 6 0 11 6 8 13 -9 32 -28 29 -8 32 28 4 14 -11 33 -20
41 -20 13 0 13 -2 -2 -13 -15 -11 -11 -12 31 -8 46 6 48 7 51 41 2 19 9 41 15
49 10 12 9 13 -2 6 -11 -6 -13 -4 -8 9 4 11 -1 28 -13 43 -11 14 -17 29 -14
34 3 5 -1 9 -8 9 -9 0 -9 3 2 10 10 6 11 10 3 10 -7 0 -13 5 -13 11 0 6 -7 17
-15 26 -8 8 -12 19 -9 25 4 6 1 16 -7 22 -39 31 -48 51 -40 88 8 35 7 37 -18
38 -14 0 -55 3 -91 5 -51 4 -71 2 -92 -12z"/>
<path d="M2607 743 c-2 -5 -4 -35 -6 -68 -1 -33 -6 -62 -11 -65 -6 -4 -5 -22
1 -45 6 -21 9 -50 7 -66 -3 -21 -1 -26 11 -21 8 3 12 1 8 -4 -3 -6 -2 -27 3
-48 15 -70 -12 -93 -30 -26 -14 51 -59 141 -60 118 0 -10 -6 -18 -13 -18 -23
0 -67 -44 -67 -68 0 -12 -5 -22 -11 -22 -5 0 -8 -4 -5 -9 4 -5 1 -11 -4 -13
-23 -7 -12 -124 13 -143 9 -6 19 -23 22 -37 6 -22 2 -27 -22 -36 -16 -5 -46
-8 -66 -6 -20 2 -39 -2 -43 -8 -4 -6 2 -8 17 -3 15 4 19 3 11 -3 -7 -5 -10
-16 -6 -25 3 -10 1 -17 -5 -17 -6 0 -16 -12 -22 -27 -7 -16 -13 -23 -16 -15
-3 6 -9 12 -14 12 -15 0 2 -29 22 -35 10 -4 19 -15 19 -26 0 -18 8 -19 105
-19 88 0 105 2 105 16 0 8 4 13 9 10 9 -6 39 101 40 144 0 14 3 53 7 87 5 53
9 62 28 65 13 2 20 10 19 21 -1 13 4 17 14 13 12 -5 14 -1 9 19 -5 18 -3 24 6
23 20 -4 23 53 4 64 -9 5 -14 13 -11 17 2 5 -3 8 -13 7 -20 -1 -29 37 -14 68
41 89 54 140 39 155 -8 8 -7 11 2 11 9 0 8 4 -3 15 -15 15 -72 21 -79 8z"/>
<path d="M4968 625 c-3 -3 6 -29 20 -58 32 -65 52 -117 52 -139 0 -9 9 -32 19
-50 11 -18 29 -62 41 -98 20 -61 28 -81 67 -170 56 -126 77 -140 88 -55 3 30
10 55 15 55 9 0 19 78 12 98 -2 6 -13 12 -23 12 -12 0 -19 7 -19 19 0 11 -3
28 -6 38 -5 12 -4 15 4 8 5 -5 12 -19 15 -30 3 -11 5 -1 6 22 0 23 -3 45 -9
48 -5 3 -11 18 -11 33 -1 24 -3 23 -9 -8 -5 -24 -8 -28 -9 -12 0 13 -5 20 -11
17 -5 -3 -10 -2 -10 4 0 5 6 12 13 15 9 3 7 8 -5 19 -13 10 -15 16 -6 25 9 9
8 12 -5 12 -11 0 -20 -14 -27 -40 -11 -40 -11 -40 -33 -23 -24 18 -34 58 -17
68 6 3 10 -3 10 -14 0 -12 5 -21 10 -21 6 0 10 4 10 9 0 5 7 17 16 25 17 18 9
42 -9 28 -20 -14 -67 -13 -67 2 0 8 -7 16 -15 20 -8 3 -15 12 -15 20 0 8 -4
16 -10 18 -5 2 -11 15 -12 31 -1 15 -8 27 -14 27 -7 0 -21 11 -31 26 -10 14
-21 22 -25 19z"/>
</g>
</svg>
