<?xml version="1.0" standalone="no"?>
<!DOCTYPE svg PUBLIC "-//W3C//DTD SVG 20010904//EN"
 "http://www.w3.org/TR/2001/REC-SVG-20010904/DTD/svg10.dtd">
<svg version="1.0" xmlns="http://www.w3.org/2000/svg"
 width="250" height="60" viewBox="0 0 228.000000 190.000000"
 preserveAspectRatio="xMidYMid meet">
<metadata>
Created by potrace 1.16, written by Peter Selinger 2001-2019
</metadata>
<g transform="translate(0.000000,190.000000) scale(0.100000,-0.100000)"
fill="#000000" stroke="none">
<path d="M1352 1688 c-157 -232 -407 -377 -685 -397 -89 -7 -106 -15 -107 -52
0 -27 21 -36 106 -43 178 -14 358 -85 497 -195 82 -66 130 -118 190 -209 38
-56 45 -63 72 -60 42 4 44 36 7 112 -121 247 -122 559 -2 796 32 64 37 89 18
108 -25 25 -48 11 -96 -60z m-76 -244 c-25 -64 -24 -330 0 -408 7 -23 -1 -18
-73 40 -63 51 -154 103 -246 139 l-68 27 80 33 c92 37 171 83 244 142 56 45
73 52 63 27z"/>
<path d="M172 471 c-19 -5 -38 -13 -43 -18 -5 -5 -8 -71 -7 -149 l3 -139 35 0
35 0 3 123 c3 134 -1 127 69 123 27 -2 33 2 39 24 3 14 4 28 2 31 -10 9 -104
13 -136 5z"/>
<path d="M430 463 c-54 -28 -80 -75 -80 -145 0 -92 32 -138 110 -159 30 -8 60
-9 90 -2 41 8 45 11 45 38 l0 29 -66 -3 c-62 -2 -68 0 -88 25 -11 15 -21 31
-21 35 0 5 45 9 99 9 55 0 102 4 105 9 3 5 3 31 -1 57 -13 99 -108 151 -193
107z"/>
<path d="M1115 473 c-72 -15 -65 3 -65 -163 l0 -150 35 0 35 0 0 124 c0 123 0
124 24 130 35 9 75 -9 86 -39 6 -15 10 -69 10 -121 l0 -94 35 0 35 0 0 108 c0
82 -4 115 -18 142 -27 56 -97 80 -177 63z"/>
<path d="M1635 466 c-67 -30 -104 -109 -86 -186 24 -107 109 -154 204 -112 62
28 91 82 85 162 -8 116 -104 180 -203 136z m109 -76 c23 -23 31 -97 14 -130
-29 -55 -97 -60 -123 -9 -17 33 -20 102 -4 130 21 41 75 45 113 9z"/>
<path d="M1965 473 c-16 -3 -34 -9 -39 -13 -5 -5 -9 -65 -8 -132 1 -68 2 -133
2 -146 0 -20 4 -23 33 -20 l32 3 3 123 c3 133 1 130 67 123 34 -3 40 -19 45
-134 l5 -112 33 -3 32 -3 0 118 c0 74 -5 127 -13 143 -24 49 -92 67 -192 53z"/>
<path d="M700 358 c0 -123 8 -148 53 -182 22 -16 42 -21 90 -20 34 0 74 4 90
7 l27 7 0 151 0 150 -37 -3 -38 -3 -3 -122 -3 -123 -39 0 c-59 0 -70 22 -70
147 l0 103 -35 0 -35 0 0 -112z"/>
<path d="M1400 315 l0 -155 35 0 35 0 0 155 0 155 -35 0 -35 0 0 -155z"/>
</g>
</svg>
